<svg xmlns="http://www.w3.org/2000/svg" viewBox="0 0 23.67 18.44"><defs><style>.cls-1{fill:#29345d;}.cls-2{fill:#fff;}</style></defs><title>mesa-trabalho_1</title><g id="Camada_2" data-name="Camada 2"><g id="Camada_1-2" data-name="Camada 1"><circle class="cls-1" cx="19.21" cy="1.37" r="0.97"/><polygon class="cls-2" points="23.38 6.58 17.93 1.55 17.25 2.29 22.16 6.83 18.8 12.65 19.67 13.15 23.38 6.74 23.28 6.68 23.38 6.58"/><path class="cls-1" d="M19.7,13.25l-1-.58,3.37-5.83L17.15,2.29l.78-.85,5.55,5.13-.08.09.08,0Zm-.8-.63.75.43,3.63-6.29-.11-.06.11-.12L17.94,1.65l-.59.64,4.9,4.53Z"/><path class="cls-2" d="M20.32,3.45a3.38,3.38,0,0,0-5.78-2.38h0l-.75.75L18.57,6.6l.7-.7h0A3.37,3.37,0,0,0,20.32,3.45Z"/><path class="cls-1" d="M18.57,6.7,13.69,1.82l.8-.8A3.45,3.45,0,0,1,20.4,3.45,3.42,3.42,0,0,1,19.32,6ZM13.9,1.82,18.57,6.5l.65-.65a3.28,3.28,0,0,0,1-2.4,3.31,3.31,0,0,0-5.61-2.38l0,0Z"/><circle class="cls-1" cx="22.63" cy="6.84" r="1.04"/><rect class="cls-2" x="0.09" y="17.14" width="21.44" height="1.23"/><path class="cls-1" d="M21.61,18.44H0V17.07H21.61ZM.17,18.3h21.3V17.21H.17Z"/><polygon class="cls-2" points="18.94 7.7 2.69 7.7 0.1 17.14 21.54 17.14 18.94 7.7"/><path class="cls-1" d="M21.63,17.21H0L2.64,7.63H19v.05ZM.19,17.07H21.44L18.88,7.77H2.75Z"/><polygon class="cls-2" points="7.27 15.83 11.97 15.83 10.31 10.48 6.2 10.7 7.27 15.83"/><path class="cls-1" d="M12.07,15.9H7.21l-1.1-5.27,4.26-.22Zm-4.74-.14h4.55l-1.61-5.2-4,.21Z"/><polygon class="cls-2" points="7.42 15.83 15.44 15.83 14.57 9.01 8.43 9.01 7.42 15.83"/><path class="cls-1" d="M15.52,15.9H7.34v-.08l1-6.88h6.26Zm-8-.14h7.85l-.85-6.67h-6Z"/><path class="cls-2" d="M16.3,11.35l-.18-.12a.06.06,0,0,0-.08,0l-.19.28,0,0a.06.06,0,0,0-.08,0l-1.45,2.15a1.14,1.14,0,0,0-.18.44l0,.22a.06.06,0,0,0,0,0l-.06.09a.06.06,0,0,0,0,.08h0l0,0,.06-.09h0l.19-.12a1.14,1.14,0,0,0,.34-.33L16,12.07a.25.25,0,0,1,0,.21l-.38.57a.06.06,0,0,0,0,.08h0l0,0,.38-.57a.42.42,0,0,0,.08-.21.21.21,0,0,0-.06-.16l.11-.17a.06.06,0,0,0,0-.08l0,0,.19-.28A.06.06,0,0,0,16.3,11.35Z"/><path class="cls-1" d="M14.06,14.56l-.05,0a.09.09,0,0,1,0-.13l.05-.08h0l0-.22a1.17,1.17,0,0,1,.18-.46l1.45-2.15a.09.09,0,0,1,.13,0l.17-.25a.09.09,0,0,1,.13,0l.18.12a.09.09,0,0,1,0,.13l-.17.25a.09.09,0,0,1,0,.13l-.1.14a.25.25,0,0,1,0,.16.46.46,0,0,1-.08.23l-.38.57a.09.09,0,0,1-.06,0h-.07a.09.09,0,0,1,0-.13l.38-.57,0-.05L14.75,14a1.17,1.17,0,0,1-.36.34l-.19.12h0l-.05.08a.09.09,0,0,1-.06,0Zm1.73-3h0l-1.45,2.15a1.11,1.11,0,0,0-.17.43l0,.22h0v0l-.06.09a0,0,0,0,0,0,0h0l.07-.1h0l.19-.12a1.1,1.1,0,0,0,.33-.32L16,12l0,.06a.28.28,0,0,1-.05.24l-.38.57a0,0,0,0,0,0,0h0l.38-.57a.39.39,0,0,0,.07-.19A.17.17,0,0,0,16,12l0,0,.13-.19a0,0,0,0,0,0,0h0l-.06,0,.21-.31a0,0,0,0,0,0,0l-.18-.12h0l-.21.31-.06,0Z"/><path class="cls-2" d="M14.08,14.56H14a.09.09,0,0,1,0-.13l.05-.08h0l0-.22a1.17,1.17,0,0,1,.18-.46l1.45-2.15a.09.09,0,0,1,.13,0l.17-.25a.09.09,0,0,1,.13,0l.18.12a.09.09,0,0,1,0,.13l-.17.25a.09.09,0,0,1,0,.13l-.1.14a.25.25,0,0,1,0,.16.46.46,0,0,1-.08.23l-.38.57a.1.1,0,0,1-.13,0,.09.09,0,0,1,0-.13l.38-.57,0-.05L14.75,14a1.18,1.18,0,0,1-.36.34l-.19.12h0l-.05.08A.09.09,0,0,1,14.08,14.56Zm1.71-3h0l-1.45,2.15a1.1,1.1,0,0,0-.17.43l0,.23v0l-.06.09a0,0,0,0,0,0,0,0,0,0,0,0,0,0l.07-.1h0l.19-.12a1.11,1.11,0,0,0,.33-.32L16,12l0,.06a.28.28,0,0,1-.05.24l-.38.57a0,0,0,0,0,0,0,0,0,0,0,0,0,0l.38-.57a.39.39,0,0,0,.07-.19A.17.17,0,0,0,16,12l0,0,.13-.19a0,0,0,0,0,0,0l-.06,0,.21-.31a0,0,0,0,0,0,0l-.18-.12h0l-.21.31-.06,0Z"/><path class="cls-1" d="M14.06,14.6l-.07,0a.13.13,0,0,1,0-.18l0-.07h0l0-.21a1.21,1.21,0,0,1,.19-.47l1.45-2.15a.13.13,0,0,1,.14-.05L16,11.2a.13.13,0,0,1,.18,0l.18.12a.13.13,0,0,1,0,.18l-.15.22a.13.13,0,0,1,0,.15l-.08.12a.3.3,0,0,1,0,.17.5.5,0,0,1-.09.25l-.38.57a.13.13,0,0,1-.18,0l0,0L14.78,14a1.21,1.21,0,0,1-.37.35l-.19.12h0l0,.07a.13.13,0,0,1-.08.05h0Zm.05-.48,0,.21h0l-.06.09a.06.06,0,0,0,0,.08.06.06,0,0,1,0-.08l.06-.1Zm0,.34,0,0h0Zm-.06,0h0Zm.1-.07h0Zm.18-.11-.17.1h0Zm1.45-2.74-1.44,2.14a1.07,1.07,0,0,0-.17.42l0,.21.18-.11a1.07,1.07,0,0,0,.32-.31l1.44-2.14-.07,0,.22-.32-.16-.11-.22.32Zm-1,1.4-.47.7a1.14,1.14,0,0,0-.17.4,1.14,1.14,0,0,1,.17-.4Zm.92-.31-.12.18a.06.06,0,0,0,0,0l0,0,0,0a.06.06,0,0,1,0,0Zm.09.07-.12.18h0Zm.13-.54.06,0h0a.21.21,0,0,0,0-.16Zm.17-.19a.21.21,0,0,1,0,.09A.2.2,0,0,0,16.08,12Zm0,0v0Zm.12-.22a.06.06,0,0,1,0,.06l-.1.15.1-.15A.06.06,0,0,0,16.17,11.75Zm0,0,0,0h0l0,0Zm.19-.32a.06.06,0,0,1,0,0l-.1.15.1-.15A.06.06,0,0,0,16.32,11.39Zm-.5.11,0,0,.19-.28a.06.06,0,0,1,.06,0,.06.06,0,0,0-.06,0l-.18.27Zm0,0h0Z"/></g></g></svg>